#!OML:ASF H:\ManfredObstacles\Project 1\Capture day 2\Session 1\male.ASF
:FULLY-SPECIFIED
:DEGREES
355
root 1.92861 15.3038 -8.08826 -155.437 -3.44442 173.617
lowerback -0.0266486 -7.85879 -7.50645
upperback 0.917758 -10.5071 0.791548
thorax 2.4528 -5.38874 4.5797
lowerneck -38.6399 4.30199 5.76143
upperneck 28.139 3.95299 -2.95482
head 16.7119 1.79702 -1.28336
rclavicle -3.89618e-014 4.77083e-015
rhumerus -71.7091 11.611 -72.1518
rradius 63.9598
rwrist 6.03618
rhand -7.20965 -7.91676
rfingers 7.12502
rthumb 18.6692 -37.0409
lclavicle -3.89618e-014 4.77083e-015
lhumerus -24.8441 -39.4931 81.5894
lradius 96.4245
lwrist -21.4029
lhand -15.9891 6.51653
lfingers 7.12502
lthumb 10.2107 36.2487
rfemur -63.6331 -3.46854 20.5876
rtibia 61.1089
rfoot -4.33739 -14.4278
rtoes -6.10231
lfemur 12.3657 -5.02679 -26.2849
ltibia 10.2161
lfoot 43.3421 -4.47175
ltoes 3.83801
356
root 1.94143 15.256 -8.3777 -155.365 -3.40196 173.586
lowerback -0.3778 -7.97224 -7.3332
upperback 0.890451 -10.6295 0.822415
thorax 2.6111 -5.44954 4.45961
lowerneck -38.3732 4.43373 5.91566
upperneck 28.1836 4.18162 -3.21481
head 16.7079 1.86871 -1.37012
rclavicle 1.27222e-013 -2.06736e-014
rhumerus -71.6564 11.8242 -72.187
rradius 64.7046
rwrist 5.82499
rhand -7.43474 -7.84168
rfingers 7.12502
rthumb 18.4527 -36.9865
lclavicle 1.27222e-013 -2.06736e-014
lhumerus -26.3742 -39.4392 82.2369
lradius 96.3205
lwrist -21.3208
lhand -15.5784 6.56695
lfingers 7.12502
lthumb 10.6068 36.2793
rfemur -62.1229 -3.38541 20.683
rtibia 60.9663
rfoot -5.26869 -13.8223
rtoes -0.855287
lfemur 10.9555 -4.9051 -26.187
ltibia 13.9915
lfoot 42.7272 -4.07885
ltoes 4.58233
357
root 1.95561 15.1993 -8.66514 -155.363 -3.29677 173.553
lowerback -0.660141 -8.02231 -7.2057
upperback 0.880122 -10.6741 0.826301
thorax 2.74089 -5.47194 4.35089
lowerneck -38.1185 4.53288 6.04914
upperneck 28.22 4.36651 -3.45214
head 16.6993 1.92446 -1.45406
rclavicle -4.45278e-014 7.15625e-015
rhumerus -71.4824 11.9232 -72.2805
rradius 65.4072
rwrist 5.6739
rhand -7.67299 -7.79562
rfingers 7.12502
rthumb 18.2235 -36.962
lclavicle -4.45278e-014 7.15625e-015
lhumerus -27.9395 -39.3125 83.0031
lradius 96.1621
lwrist -21.2978
lhand -15.0912 6.55791
lfingers 7.12502
lthumb 11.0768 36.2456
rfemur -60.5401 -3.21613 20.7352
rtibia 60.9383
rfoot -7.30103 -14.2143
rtoes 0.193423
lfemur 9.67806 -4.74156 -26.1336
ltibia 17.6587
lfoot 42.0386 -3.55664
ltoes 4.98225
358
root 1.97059 15.1361 -8.94957 -155.423 -3.12275 173.539
lowerback -0.854959 -8.00849 -7.11341
upperback 0.88375 -10.6406 0.815307
thorax 2.82963 -5.45537 4.26428
lowerneck -37.902 4.62586 6.18368
upperneck 28.2468 4.54095 -3.6959
head 16.694 1.97469 -1.54343
rclavicle -3.97569e-015 -2.22639e-014
rhumerus -71.1788 11.9365 -72.4479
rradius 66.0913
rwrist 5.5143
rhand -7.95078 -7.75167
rfingers 7.12502
rthumb 17.9562 -36.9428
lclavicle -3.97569e-015 -2.22639e-014
lhumerus -29.5189 -39.091 83.8721
lradius 95.9242
lwrist -21.3351
lhand -14.6181 6.481
lfingers 7.12502
lthumb 11.5331 36.1437
rfemur -58.9523 -2.94713 20.7749
rtibia 61.0081
rfoot -10.0982 -15.6906
rtoes -3.23467
lfemur 8.44629 -4.52567 -26.103
ltibia 21.355
lfoot 41.2716 -2.86772
ltoes 5.19713
359
root 1.9858 15.0696 -9.23042 -155.557 -2.87072 173.569
lowerback -0.919268 -7.92515 -7.03871
upperback 0.895745 -10.5243 0.80205
thorax 2.84655 -5.3963 4.21115
lowerneck -37.7341 4.71809 6.32292
upperneck 28.2816 4.71583 -3.95875
head 16.7039 2.02213 -1.64194
rclavicle 3.65764e-014 -1.43125e-014
rhumerus -70.7415 11.8748 -72.6868
rradius 66.764
rwrist 5.37772
rhand -8.26327 -7.71462
rfingers 7.12502
rthumb 17.6555 -36.933
lclavicle 3.65764e-014 -1.43125e-014
lhumerus -31.0993 -38.7537 84.8266
lradius 95.5947
lwrist -21.4476
lhand -14.1689 6.32199
lfingers 7.12502
lthumb 11.9663 35.96
rfemur -57.4128 -2.57219 20.8407
rtibia 61.1779
rfoot -12.9985 -18.1358
rtoes -9.92617
lfemur 7.23221 -4.2302 -26.0601
ltibia 25.1499
lfoot 40.3554 -2.00623
ltoes 5.21183
360
root 2.00065 15.0014 -9.50647 -155.772 -2.51884 173.675
lowerback -0.848487 -7.76232 -6.96448
upperback 0.930949 -10.3117 0.791901
thorax 2.80103 -5.28855 4.18774
lowerneck -37.5877 4.80196 6.44073
upperneck 28.2605 4.88275 -4.21635
head 16.6902 2.06369 -1.73604
rclavicle -1.56642e-013 -7.15625e-015
rhumerus -70.1602 11.7389 -73.0107
rradius 67.4442
rwrist 5.25273
rhand -8.64014 -7.63712
rfingers 7.12502
rthumb 17.2928 -36.8878
lclavicle -1.56642e-013 -7.15625e-015
lhumerus -32.6369 -38.2772 85.8272
lradius 95.174
lwrist -21.5907
lhand -13.7717 6.0824
lfingers 7.12502
lthumb 12.3493 35.6977
rfemur -55.9619 -2.08346 20.976
rtibia 61.4611
rfoot -15.3619 -20.943
rtoes -16.4843
lfemur 5.98821 -3.80464 -25.9725
ltibia 29.1005
lfoot 39.2874 -1.12891
ltoes 4.98935
361
root 2.01398 14.9335 -9.77756 -156.079 -2.06444 173.886
lowerback -0.622114 -7.51355 -6.84301
upperback 0.986277 -9.99575 0.785648
thorax 2.66958 -5.127 4.17182
lowerneck -37.4331 4.88411 6.56379
upperneck 28.1912 5.04541 -4.48591
head 16.6524 2.10194 -1.83686
rclavicle -8.0309e-014 -1.11319e-014
rhumerus -69.4458 11.5375 -73.4419
rradius 68.1417
rwrist 5.13104
rhand -9.05921 -7.5473
rfingers 7.12502
rthumb 16.8894 -36.8329
lclavicle -8.0309e-014 -1.11319e-014
lhumerus -34.1366 -37.6805 86.8615
lradius 94.6397
lwrist -21.7639
lhand -13.4503 5.79226
lfingers 7.12502
lthumb 12.6591 35.3886
rfemur -54.5883 -1.51229 21.229
rtibia 61.864
rfoot -16.9957 -23.2978
rtoes -20.6079
lfemur 4.69692 -3.22392 -25.8044
ltibia 33.2463
lfoot 38.0602 -0.41842
ltoes 4.43128
362
root 2.02609 14.8664 -10.0432 -156.488 -1.51532 174.24
lowerback -0.242857 -7.17659 -6.63833
upperback 1.07522 -9.57276 0.789304
thorax 2.46336 -4.90988 4.14529
lowerneck -37.2862 4.95181 6.6676
upperneck 28.0783 5.18324 -4.72952
head 16.5922 2.13167 -1.92828
rclavicle -8.54774e-015 -2.3059e-014
rhumerus -68.5837 11.2685 -73.9887
rradius 68.8702
rwrist 5.06047
rhand -9.49862 -7.43958
rfingers 7.12502
rthumb 16.4664 -36.7608
lclavicle -8.54774e-015 -2.3059e-014
lhumerus -35.5683 -36.9609 87.8958
lradius 93.9806
lwrist -21.9658
lhand -13.1915 5.46872
lfingers 7.12502
lthumb 12.9086 35.0495
rfemur -53.2448 -0.857777 21.6304
rtibia 62.3705
rfoot -18.1248 -24.774
rtoes -22.1775
lfemur 3.33849 -2.48641 -25.5055
ltibia 37.6147
lfoot 36.6736 0.077624
ltoes 3.44616
363
root 2.03554 14.8006 -10.3039 -156.999 -0.896581 174.742
lowerback 0.271279 -6.76102 -6.30381
upperback 1.19903 -9.05299 0.798472
thorax 2.18903 -4.64197 4.07004
lowerneck -37.123 5.00124 6.75542
upperneck 27.9258 5.29017 -4.94426
head 16.5062 2.15184 -2.01102
rclavicle 1.80894e-014 -1.74931e-014
rhumerus -67.57 10.9416 -74.6665
rradius 69.5991
rwrist 5.0503
rhand -9.95623 -7.26907
rfingers 7.12502
rthumb 16.0258 -36.6263
lclavicle 1.80894e-014 -1.74931e-014
lhumerus -36.9392 -36.1291 88.9182
lradius 93.1823
lwrist -22.2006
lhand -13.0242 5.15813
lfingers 7.12502
lthumb 13.0699 34.7286
rfemur -51.8576 -0.16627 22.1757
rtibia 62.9336
rfoot -18.9939 -25.5957
rtoes -22.6149
lfemur 1.91726 -1.63297 -25.0661
ltibia 42.1984
lfoot 35.2847 0.335922
ltoes 2.47115
364
root 2.04216 14.7377 -10.5602 -157.562 -0.252087 175.372
lowerback 0.870537 -6.29569 -5.82464
upperback 1.35702 -8.46939 0.810827
thorax 1.87923 -4.34088 3.92115
lowerneck -37.0077 5.0476 6.84678
upperneck 27.7704 5.37487 -5.13383
head 16.4262 2.16656 -2.08806
rclavicle 5.725e-014 -4.37326e-015
rhumerus -66.3564 10.5716 -75.4968
rradius 70.3237
rwrist 5.11438
rhand -10.408 -7.06532
rfingers 7.12502
rthumb 15.5907 -36.457
lclavicle 5.725e-014 -4.37326e-015
lhumerus -38.2127 -35.1925 89.8814
lradius 92.2189
lwrist -22.4461
lhand -13 4.92701
lfingers 7.12502
lthumb 13.0932 34.496
rfemur -50.4101 0.517039 22.8307
rtibia 63.4835
rfoot -19.6151 -26.2139
rtoes -23.3252
lfemur 0.382461 -0.719288 -24.4854
ltibia 46.9751
lfoot 33.9683 0.384391
ltoes 1.62508
365
root 2.04571 14.6797 -10.8147 -158.174 0.372567 176.108
lowerback 1.52449 -5.80312 -5.18672
upperback 1.55011 -7.84761 0.824128
thorax 1.5578 -4.02059 3.67889
lowerneck -36.9042 5.08222 6.92421
upperneck 27.6098 5.43394 -5.28579
head 16.3425 2.17514 -2.15194
rclavicle -1.09332e-013 -7.15625e-015
rhumerus -64.9301 10.178 -76.488
rradius 71.0383
rwrist 5.27488
rhand -10.8521 -6.83394
rfingers 7.12502
rthumb 15.163 -36.2584
lclavicle -1.09332e-013 -7.15625e-015
lhumerus -39.3857 -34.161 90.7599
lradius 91.0779
lwrist -22.7341
lhand -13.0807 4.83693
lfingers 7.12502
lthumb 13.0154 34.4109
rfemur -48.8311 1.14598 23.5627
rtibia 63.9383
rfoot -20.0466 -26.6592
rtoes -24.3392
lfemur -1.23968 0.199054 -23.7649
ltibia 51.8856
lfoot 32.6998 0.356574
ltoes 0.896857
366
root 2.04716 14.6272 -11.0688 -158.764 0.941935 176.891
lowerback 2.16079 -5.39096 -4.4409
upperback 1.75645 -7.20688 0.830379
thorax 1.25957 -3.6471 3.35227
lowerneck -36.8115 5.10615 6.98902
upperneck 27.4871 5.47241 -5.39842
head 16.2759 2.18066 -2.20158
rclavicle -4.37326e-014 -6.75868e-015
rhumerus -63.2762 9.80531 -77.663
rradius 71.7194
rwrist 5.52774
rhand -11.294 -6.56169
rfingers 7.12502
rthumb 14.7373 -36.0178
lclavicle -4.37326e-014 -6.75868e-015
lhumerus -40.4673 -33.0497 91.5266
lradius 89.7626
lwrist -22.9814
lhand -13.2538 4.99368
lfingers 7.12502
lthumb 12.8486 34.5782
rfemur -47.1548 1.67699 24.3165
rtibia 64.2358
rfoot -20.4203 -26.9198
rtoes -25.4775
lfemur -3.01685 1.05737 -22.9548
ltibia 56.8758
lfoot 31.4703 0.277894
ltoes 0.27809
367
root 2.04774 14.5812 -11.3252 -159.323 1.45443 177.662
lowerback 2.73934 -4.93707 -3.65725
upperback 1.97137 -6.59673 0.826224
thorax 1.01105 -3.3261 2.9721
lowerneck -36.7657 5.11059 7.01321
upperneck 27.4527 5.49073 -5.45949
head 16.2555 2.182 -2.22769
rclavicle 4.92986e-014 -5.96354e-015
rhumerus -61.3763 9.49062 -79.0041
rradius 72.3728
rwrist 5.89453
rhand -11.7079 -6.27953
rfingers 7.12502
rthumb 14.3385 -35.7644
lclavicle 4.92986e-014 -5.96354e-015
lhumerus -41.462 -31.8825 92.1588
lradius 88.3084
lwrist -23.1632
lhand -13.4554 5.4921
lfingers 7.12502
lthumb 12.6542 35.0888
rfemur -45.3666 2.08913 25.0372
rtibia 64.3315
rfoot -20.7856 -27.0447
rtoes -26.6533
lfemur -4.9227 1.83293 -22.1127
ltibia 61.8711
lfoot 30.2336 0.249827
ltoes -0.180026
368
root 2.04914 14.5421 -11.5844 -159.794 1.9004 178.342
lowerback 3.19131 -4.51772 -2.93371
upperback 2.17394 -6.02079 0.805569
thorax 0.843183 -3.0235 2.58389
lowerneck -36.7235 5.09028 6.98844
upperneck 27.4657 5.48904 -5.47526
head 16.2533 2.17766 -2.23123
rclavicle -1.03368e-014 2.5842e-014
rhumerus -59.2403 9.27278 -80.4812
rradius 72.9963
rwrist 6.40918
rhand -12.0533 -5.99577
rfingers 7.12502
rthumb 14.0056 -35.5039
lclavicle -1.03368e-014 2.5842e-014
lhumerus -42.4185 -30.6801 92.6519
lradius 86.8225
lwrist -23.2306
lhand -13.5917 6.40519
lfingers 7.12502
lthumb 12.5227 36.0099
rfemur -43.5356 2.37183 25.6558
rtibia 64.212
rfoot -21.1495 -27.0903
rtoes -27.7497
lfemur -7.03537 2.493 -21.3224
ltibia 66.8219
lfoot 28.9806 0.347171
ltoes -0.432
369
root 2.05318 14.5111 -11.8479 -160.147 2.28128 178.879
lowerback 3.48959 -4.13467 -2.34938
upperback 2.33274 -5.49012 0.772125
thorax 0.74498 -2.74619 2.23945
lowerneck -36.6774 5.04579 6.91476
upperneck 27.5614 5.47746 -5.45706
head 16.2859 2.17081 -2.21528
rclavicle 3.55825e-014 -1.98785e-014
rhumerus -56.9125 9.22287 -82.061
rradius 73.5917
rwrist 7.04414
rhand -12.3437 -5.69819
rfingers 7.12502
rthumb 13.7258 -35.2255
lclavicle 3.55825e-014 -1.98785e-014
lhumerus -43.418 -29.453 93.0205
lradius 85.4268
lwrist -23.1624
lhand -13.5756 7.69426
lfingers 7.12502
lthumb 12.5383 37.2981
rfemur -41.7036 2.5439 26.1273
rtibia 63.8785
rfoot -21.5073 -27.121
rtoes -28.7345
lfemur -9.387 3.02231 -20.6459
ltibia 71.6689
lfoot 27.7084 0.641622
ltoes -0.48669
